<svg id="visual" viewBox="0 0 1920 250" width="1920" height="250" xmlns="http://www.w3.org/2000/svg" xmlns:xlink="http://www.w3.org/1999/xlink" version="1.1"><path d="M0 29L192 29L192 21L384 21L384 19L576 19L576 29L768 29L768 44L960 44L960 41L1152 41L1152 44L1344 44L1344 29L1536 29L1536 31L1728 31L1728 21L1920 21L1920 21L1920 0L1920 0L1728 0L1728 0L1536 0L1536 0L1344 0L1344 0L1152 0L1152 0L960 0L960 0L768 0L768 0L576 0L576 0L384 0L384 0L192 0L192 0L0 0Z" fill="#572020"></path><path d="M0 76L192 76L192 59L384 59L384 49L576 49L576 51L768 51L768 66L960 66L960 76L1152 76L1152 74L1344 74L1344 54L1536 54L1536 86L1728 86L1728 76L1920 76L1920 46L1920 19L1920 19L1728 19L1728 29L1536 29L1536 27L1344 27L1344 42L1152 42L1152 39L960 39L960 42L768 42L768 27L576 27L576 17L384 17L384 19L192 19L192 27L0 27Z" fill="#4a2120"></path><path d="M0 126L192 126L192 116L384 116L384 184L576 184L576 151L768 151L768 134L960 134L960 141L1152 141L1152 134L1344 134L1344 129L1536 129L1536 154L1728 154L1728 156L1920 156L1920 149L1920 44L1920 74L1728 74L1728 84L1536 84L1536 52L1344 52L1344 72L1152 72L1152 74L960 74L960 64L768 64L768 49L576 49L576 47L384 47L384 57L192 57L192 74L0 74Z" fill="#3c2120"></path><path d="M0 224L192 224L192 196L384 196L384 234L576 234L576 214L768 214L768 214L960 214L960 201L1152 201L1152 224L1344 224L1344 199L1536 199L1536 214L1728 214L1728 201L1920 201L1920 229L1920 147L1920 154L1728 154L1728 152L1536 152L1536 127L1344 127L1344 132L1152 132L1152 139L960 139L960 132L768 132L768 149L576 149L576 182L384 182L384 114L192 114L192 124L0 124Z" fill="#2f2120"></path><path d="M0 251L192 251L192 251L384 251L384 251L576 251L576 251L768 251L768 251L960 251L960 251L1152 251L1152 251L1344 251L1344 251L1536 251L1536 251L1728 251L1728 251L1920 251L1920 251L1920 227L1920 199L1728 199L1728 212L1536 212L1536 197L1344 197L1344 222L1152 222L1152 199L960 199L960 212L768 212L768 212L576 212L576 232L384 232L384 194L192 194L192 222L0 222Z" fill="#202020"></path></svg>