<svg id="visual" viewBox="0 0 1920 250" width="1920" height="250" xmlns="http://www.w3.org/2000/svg" xmlns:xlink="http://www.w3.org/1999/xlink" version="1.1"><rect x="0" y="0" width="1920" height="250" fill="#572020"></rect><path d="M0 46L175 62L349 46L524 41L698 21L873 38L1047 3L1222 20L1396 44L1571 61L1745 22L1920 64L1920 251L1745 251L1571 251L1396 251L1222 251L1047 251L873 251L698 251L524 251L349 251L175 251L0 251Z" fill="#572020"></path><path d="M0 74L175 67L349 91L524 53L698 39L873 60L1047 96L1222 50L1396 71L1571 72L1745 86L1920 57L1920 251L1745 251L1571 251L1396 251L1222 251L1047 251L873 251L698 251L524 251L349 251L175 251L0 251Z" fill="#4c2120"></path><path d="M0 71L175 85L349 137L524 119L698 127L873 125L1047 95L1222 125L1396 81L1571 82L1745 115L1920 101L1920 251L1745 251L1571 251L1396 251L1222 251L1047 251L873 251L698 251L524 251L349 251L175 251L0 251Z" fill="#412120"></path><path d="M0 134L175 107L349 170L524 143L698 142L873 148L1047 131L1222 110L1396 170L1571 109L1745 170L1920 173L1920 251L1745 251L1571 251L1396 251L1222 251L1047 251L873 251L698 251L524 251L349 251L175 251L0 251Z" fill="#372120"></path><path d="M0 209L175 176L349 188L524 143L698 154L873 148L1047 169L1222 171L1396 210L1571 211L1745 148L1920 172L1920 251L1745 251L1571 251L1396 251L1222 251L1047 251L873 251L698 251L524 251L349 251L175 251L0 251Z" fill="#2c2120"></path><path d="M0 187L175 207L349 192L524 208L698 216L873 216L1047 187L1222 203L1396 225L1571 196L1745 227L1920 194L1920 251L1745 251L1571 251L1396 251L1222 251L1047 251L873 251L698 251L524 251L349 251L175 251L0 251Z" fill="#202020"></path></svg>